<svg width="1612" height="623" viewBox="0 0 1612 623" fill="none" xmlns="http://www.w3.org/2000/svg">
<g clip-path="url(#clip0)">
<path d="M0 460.15C0 407.67 30.7 367.33 86.75 367.33C112.1 367.33 135.21 379.72 145.92 399V296H174.92V550H145.92V521C135.21 540.63 112.1 553 86.75 553C30.7 553 0 512.63 0 460.15ZM148.87 460.15C148.87 419.45 125.3 393.04 89.25 393.04C53.2 393.04 29.25 419.45 29.25 460.15C29.25 500.85 53.17 527.27 89.25 527.27C125.33 527.27 148.87 500.85 148.87 460.15ZM368.92 492C362.86 528.77 330.92 553 286.31 553C233.11 553 197.42 510.52 197.42 459.11C197.42 406.27 230.26 367.36 283.09 367.36C335.57 367.36 366.99 403.78 366.99 451.61C366.874 455.757 366.517 459.894 365.92 464H225.92C228.07 501.13 252.39 527.62 286.31 527.62C315.58 527.62 334.21 514.49 339.92 492H368.92ZM226.92 441H337.92C335.78 410.66 315.22 391.61 283.09 391.61C252.75 391.61 232.28 409.23 226.92 441ZM366.92 370H395.92L447.27 514.41L497.92 370H527.92L461.92 550H432.92L366.92 370ZM696.92 492C690.86 528.77 658.72 553 614.1 553C560.9 553 525.2 510.52 525.2 459.11C525.2 406.27 558.05 367.36 610.88 367.36C663.36 367.36 694.78 403.78 694.78 451.61C694.724 455.763 694.436 459.909 693.92 464.03H553.92C556.07 501.16 580.18 527.65 614.1 527.65C643.37 527.65 662.21 514.52 667.92 492.03L696.92 492ZM554.83 441.23H665.5C663.36 410.89 643.01 391.61 610.88 391.61C580.54 391.61 560.19 409.46 554.83 441.23ZM720.92 296H749.92V550H720.92V296ZM773.7 460.15C773.7 405.89 811.9 367.33 865.09 367.33C918.64 367.33 956.84 405.89 956.84 460.15C956.84 514.06 918.64 552.97 865.09 552.97C811.9 553 773.7 514.06 773.7 460.15ZM927.57 460.15C927.57 420.88 902.22 393.04 865.09 393.04C828.32 393 803 420.88 803 460.15C803 499.42 828.34 527.27 865.11 527.27C902.22 527.27 927.57 499.42 927.57 460.15ZM980.92 370H1009.92V400C1020.99 380.37 1043.73 367.33 1069.44 367.33C1125.13 367.33 1155.83 407.67 1155.83 460.15C1155.83 512.63 1124.41 553 1068.72 553C1043.38 553 1020.63 540.31 1009.92 521V623H980.92V370ZM1126.2 460.15C1126.2 419.45 1102.64 393.04 1066.58 393.04C1030.52 393.04 1007 419.45 1007 460.15C1007 500.85 1030.56 527.27 1066.62 527.27C1102.68 527.27 1126.2 500.85 1126.2 460.15ZM1342.92 492C1336.86 528.77 1305.41 553 1260.78 553C1207.59 553 1171.89 510.52 1171.89 459.11C1171.89 406.27 1204.73 367.36 1257.57 367.36C1310.05 367.36 1341.46 403.78 1341.46 451.61C1341.49 455.756 1341.31 459.902 1340.92 464.03H1199.92C1202.07 501.16 1226.87 527.65 1260.78 527.65C1290.06 527.65 1308.21 514.52 1313.92 492.03L1342.92 492ZM1201.52 441.23H1312.19C1310.05 410.89 1289.7 391.61 1257.57 391.61C1227.22 391.61 1206.88 409.46 1201.52 441.23ZM1442.92 396C1406.51 396 1395.87 428.38 1395.87 469.86L1395.92 550H1366.92V370H1395.92L1395.87 406.6C1403.36 381.97 1418.36 370.19 1444.77 370.19L1467.92 370V396H1442.92ZM1473.92 492H1501.92C1504.42 515.2 1519.71 528 1545.77 528C1568.26 528 1583.25 515.5 1583.25 500.87C1583.25 447.32 1478.65 495.51 1478.65 417.69C1478.65 387.34 1504.36 367.35 1542.2 367.35C1581.83 367.35 1608.78 388.82 1610.92 422.02H1582.92C1580.43 399.17 1557.92 391.63 1541.49 391.63C1520.42 391.63 1506.49 401.63 1506.49 417.33C1506.49 465.88 1611.8 417.69 1611.8 500.15C1611.8 532.28 1585.39 552.99 1545.8 552.99C1504 553 1476.78 529.48 1473.92 492Z" fill="white"/>
<path d="M420.9 13.26V187.53L476.4 273H594.8L595.17 117.97H521.54V209.73H494.16V90.22H594.8V45.08H494.16V13.26H420.9ZM794.614 273H620.714V13.26H794.614V76.53H693.974V117.97H732.824V163.11H693.974V209.73H794.614V273ZM820.529 108.35L876.029 162.74V273H948.919V163.11H994.799V13.26H921.169V117.97H893.789V13.26H820.529V108.35ZM1194.61 273H1058.45L1020.71 231.19V117.97H1123.57V76.53H1020.34V13.26H1139.11L1194.61 98.73V163.11H1084.72V214.54H1194.61V273Z" fill="white"/>
</g>
<defs>
<clipPath id="clip0">
<rect width="1611.81" height="623" fill="white"/>
</clipPath>
</defs>
</svg>
