<svg width="177" height="177" viewBox="0 0 177 177" fill="none" xmlns="http://www.w3.org/2000/svg">
<path opacity="0.3" d="M91.7924 45.6348L92.1598 46.4944L92.6709 45.7116L118.351 6.37752L112.739 53.016L112.628 53.9442L113.462 53.5218L155.368 32.2975L127.19 69.8819L126.629 70.6298L127.562 70.681L174.467 73.2535L131.271 91.7131L130.411 92.0805L131.194 92.5916L170.528 118.272L123.89 112.66L122.961 112.549L123.384 113.383L144.608 155.289L107.024 127.11L106.276 126.549L106.224 127.483L103.652 174.387L85.1924 131.191L84.825 130.332L84.3139 131.115L58.6339 170.449L64.2453 123.81L64.357 122.882L63.523 123.304L21.6164 144.529L49.7952 106.944L50.3561 106.196L49.4226 106.145L2.51824 103.573L45.7141 85.1131L46.5737 84.7457L45.7909 84.2346L6.45682 58.5546L53.0953 64.166L54.0235 64.2777L53.6011 63.4437L32.3768 21.5371L69.9612 49.7159L70.7091 50.2768L70.7603 49.3433L73.3328 2.43894L91.7924 45.6348Z" stroke="white"/>
</svg>
