<svg width="209" height="209" viewBox="0 0 209 209" fill="none" xmlns="http://www.w3.org/2000/svg">
<path d="M129.496 3.01344C129.975 2.01871 131.476 2.4208 131.394 3.52202L127.604 54.357C127.538 55.2415 128.57 55.7677 129.247 55.1944L168.146 22.2482C168.989 21.5345 170.196 22.5122 169.673 23.4848L145.534 68.3834C145.114 69.1646 145.844 70.0653 146.695 69.8169L195.631 55.5406C196.691 55.2313 197.397 56.6155 196.523 57.2914L156.21 88.4901C155.508 89.0329 155.808 90.1525 156.687 90.2719L207.199 97.1339C208.293 97.2825 208.375 98.834 207.302 99.0962L157.784 111.201C156.922 111.411 156.741 112.556 157.495 113.022L200.849 139.836C201.789 140.417 201.232 141.868 200.145 141.671L149.985 132.588C149.112 132.43 148.481 133.402 148.98 134.135L177.68 176.264C178.302 177.177 177.203 178.275 176.29 177.654L134.161 148.954C133.428 148.455 132.456 149.086 132.614 149.959L141.697 200.119C141.894 201.206 140.443 201.762 139.862 200.823L113.049 157.469C112.582 156.715 111.437 156.896 111.227 157.758L99.1223 207.276C98.8601 208.349 97.3087 208.267 97.16 207.173L90.298 156.661C90.1786 155.782 89.0591 155.482 88.5162 156.183L57.3175 196.497C56.6416 197.371 55.2574 196.665 55.5667 195.605L69.843 146.669C70.0914 145.818 69.1907 145.088 68.4095 145.508L23.511 169.647C22.5383 170.17 21.5606 168.963 22.2743 168.12L55.2206 129.221C55.7938 128.544 55.2676 127.512 54.3831 127.578L3.54814 131.368C2.44692 131.45 2.04483 129.949 3.03956 129.47L48.959 107.334C49.7579 106.949 49.6973 105.792 48.8624 105.492L0.880809 88.2781C-0.158602 87.9052 0.0844287 86.3708 1.1882 86.3373L52.1409 84.7928C53.0274 84.766 53.4428 83.6839 52.8019 83.0708L15.9702 47.829C15.1723 47.0655 16.0184 45.7626 17.0404 46.181L64.2162 65.4944C65.037 65.8304 65.8565 65.0109 65.5205 64.19L46.2071 17.0143C45.7887 15.9923 47.0917 15.1462 47.8551 15.944L83.0969 52.7758C83.7101 53.4166 84.7921 53.0013 84.8189 52.1148L86.3634 1.16208C86.3969 0.0583104 87.9313 -0.18472 88.3042 0.854693L105.518 48.8363C105.818 49.6711 106.975 49.7318 107.36 48.9328L129.496 3.01344Z" fill="url(#paint0_linear)"/>
<defs>
<linearGradient id="paint0_linear" x1="105.219" y1="357.641" x2="-49.5017" y2="157.451" gradientUnits="userSpaceOnUse">
<stop stop-color="#8135D7"/>
<stop offset="1" stop-color="#A869EE"/>
</linearGradient>
</defs>
</svg>
